HIERARCHY
ROOT Hips
{
	OFFSET 0.00000 0.00000 0.00000
	CHANNELS 6 Xposition Yposition Zposition Zrotation Yrotation Xrotation 
	JOINT LHipJoint
	{
		OFFSET 0 0 0
		CHANNELS 3 Zrotation Yrotation Xrotation
		JOINT LeftHip
		{
			OFFSET 1.44361 -1.63093 0.70831
			CHANNELS 3 Zrotation Yrotation Xrotation
			JOINT LeftKnee
			{
				OFFSET 2.20103 -6.04728 0.00000
				CHANNELS 3 Zrotation Yrotation Xrotation
				JOINT LeftAnkle
				{
					OFFSET 2.54154 -6.98283 0.00000
					CHANNELS 3 Zrotation Yrotation Xrotation
					JOINT LeftToe
					{
						OFFSET 0.05971 -0.16406 1.77582
						CHANNELS 3 Zrotation Yrotation Xrotation
						End Site
						{
							OFFSET 0.00000 -0.00000 0.90832
						}
					}
				}
			}
		}
	}
	JOINT RHipJoint
	{
		OFFSET 0 0 0
		CHANNELS 3 Zrotation Yrotation Xrotation
		JOINT RightHip
		{
			OFFSET -1.65838 -1.63093 0.70830
			CHANNELS 3 Zrotation Yrotation Xrotation
			JOINT RightKnee
			{
				OFFSET -2.26926 -6.23475 0.00000
				CHANNELS 3 Zrotation Yrotation Xrotation
				JOINT RightAnkle
				{
					OFFSET -2.34808 -6.45129 0.00000
					CHANNELS 3 Zrotation Yrotation Xrotation
					JOINT RightToe
					{
						OFFSET -0.18633 -0.51195 1.68539
						CHANNELS 3 Zrotation Yrotation Xrotation
						End Site
						{
							OFFSET -0.00000 -0.00000 0.88927
						}
					}
				}
			}
		}
	}
	JOINT lowerback
	{
		OFFSET 0 0 0
		CHANNELS 3 Zrotation Yrotation Xrotation
		JOINT Chest
		{
			OFFSET -0.10393 2.01691 0.06920
			CHANNELS 3 Zrotation Yrotation Xrotation
			JOINT Chest2
			{
				OFFSET 0.04092 2.01302 -0.05283
				CHANNELS 3 Zrotation Yrotation Xrotation
				JOINT lowerneck
				{
					OFFSET 0 0 0
					CHANNELS 3 Zrotation Yrotation Xrotation
					JOINT Neck
					{
						OFFSET -0.02870 1.58978 -0.03113
						CHANNELS 3 Zrotation Yrotation Xrotation
						JOINT Head
						{
							OFFSET 0.11532 1.54326 -0.29195
							CHANNELS 3 Zrotation Yrotation Xrotation
							End Site
							{
								OFFSET 0.04056 1.59999 -0.09535
							}
						}
					}
				}
				JOINT LeftCollar
				{
					OFFSET 0 0 0
					CHANNELS 3 Zrotation Yrotation Xrotation
					JOINT LeftShoulder
					{
						OFFSET 3.30641 1.15764 0.01104
CHANNELS 3 Zrotation Xrotation Yrotation
						JOINT LeftElbow
						{
OFFSET 0 -4.632080 0.000000
CHANNELS 3 Zrotation Xrotation Yrotation
							JOINT LeftWrist
							{
OFFSET 0 -3.419240 -0.000000
CHANNELS 3 Zrotation Xrotation Yrotation
								JOINT lhand
								{
									OFFSET 0 0 0
CHANNELS 3 Zrotation Xrotation Yrotation
									JOINT LFingers
									{
OFFSET 0 -0.625370 -0.000000
CHANNELS 3 Zrotation Xrotation Yrotation
										End Site
										{
OFFSET 0 -0.504190 -0.000000
										}
									}
								}
								JOINT LThumb
								{
OFFSET 0 0.000000 0.000000
CHANNELS 3 Zrotation Xrotation Yrotation
									End Site
									{
OFFSET 0 -0.511890 0.511890
									}
								}
							}
						}
					}
				}
				JOINT RightCollar
				{
					OFFSET 0 0 0
					CHANNELS 3 Zrotation Yrotation Xrotation
					JOINT RightShoulder
					{
						OFFSET -3.78081 1.02180 -0.16609
CHANNELS 3 Zrotation Xrotation Yrotation
						JOINT RightElbow
						{
OFFSET 0 -4.406400 -0.000000
CHANNELS 3 Zrotation Xrotation Yrotation
							JOINT RightWrist
							{
OFFSET 0 -3.446750 0.000000
CHANNELS 3 Zrotation Xrotation Yrotation
								JOINT rhand
								{
									OFFSET 0 0 0
CHANNELS 3 Zrotation Xrotation Yrotation
									JOINT RFingers
									{
OFFSET 0 -0.513670 -0.000000
CHANNELS 3 Zrotation Xrotation Yrotation
										End Site
										{
OFFSET 0 -0.414140 -0.000000
										}
									}
								}
								JOINT RThumb
								{
OFFSET 0 0.000000 0.000000
CHANNELS 3 Zrotation Xrotation Yrotation
									End Site
									{
OFFSET 0 -0.420460 0.420460
									}
								}
							}
						}
					}
				}
			}
		}
	}
}
MOTION
Frames: 4
Frame Time: 0.008333333333333333
9.615100 16.795400 -35.830500 -0.499300 -6.546100 10.583600 0.000000 0.000000 0.000000 -16.931300 -9.382100 -3.137000 0.101900 2.058300 5.666800 0.916900 8.384800 -22.980700 2.046600 -8.962400 -25.677800 0.000000 0.000000 0.000000 15.148400 8.476100 -7.725900 -0.359900 -3.853800 10.665600 -0.669900 3.499600 -14.670700 -0.218000 -3.005600 8.294200 -5.607600 0.998100 -7.435500 1.175500 1.799100 1.361000 4.601700 0.692000 5.395000 -8.541100 -0.407600 -3.702500 12.147200 -1.449600 14.062900 5.166700 -0.435500 4.916000 -0.000000 -0.000000 0.000000 0.294400 -3.296000 -16.762700 7.259500 -12.345500 0.786200 26.326500 24.617200 20.427800 0.000000 0.000000 0.000000 -7.125000 0.000000 0.000000 -1.382900 7.419900 -1.193100 -0.000000 -0.000000 0.000000 -0.475300 0.084300 -23.636300 -8.356600 -14.129300 -1.037400 -22.823800 47.572000 39.119500 0.000000 0.000000 0.000000 7.125000 0.000000 -0.000000 18.858100 70.586600 -11.652400
9.600029 16.796456 -35.844131 -0.059651 -6.627022 10.411196 0.000000 0.000000 0.000000 -17.394948 -9.269788 -3.034479 0.099980 2.039005 5.613524 0.863624 8.735272 -22.798601 2.796596 -10.352959 -30.132370 0.000000 0.000000 0.000000 14.705487 8.600219 -7.861731 -0.391386 -4.016893 11.124256 -0.864958 3.131082 -16.792056 -0.397508 3.801574 -10.532202 -6.031603 0.961911 -7.124962 1.140078 1.774142 1.410725 4.792343 0.670402 5.264545 -6.879168 0.536974 -1.474015 10.054642 0.047320 11.235321 4.218958 0.181257 3.544255 0.000000 0.000000 0.000000 0.164041 -3.452949 -17.343076 7.461278 -12.675909 0.829877 26.426141 23.834758 20.802078 0.000000 0.000000 0.000000 -7.125000 0.000000 0.000000 -1.362741 6.996857 -1.186860 0.000000 0.000000 0.000000 -0.563134 -0.155011 -23.367615 -8.319259 -14.069016 -1.028377 -23.371058 48.131257 39.366779 0.000000 0.000000 0.000000 7.125000 0.000000 0.000000 18.507052 70.994188 -11.596148
9.581555 16.797144 -35.857302 0.331982 -6.706381 10.230513 0.000000 0.000000 0.000000 -17.777923 -9.208712 -2.935362 0.099440 2.033509 5.598330 0.764722 9.312674 -22.405300 3.778582 -11.848475 -35.212725 0.000000 0.000000 0.000000 14.333587 8.797836 -8.031228 -0.433910 -4.226715 11.715373 -1.112449 3.074306 -19.137768 -1.484095 7.617895 -21.593184 -6.437944 0.977142 -6.791059 1.134093 1.809987 1.448215 5.009754 0.680998 5.099779 -3.814991 1.585402 1.816548 5.111417 1.783037 8.603949 2.304804 0.899843 2.316378 0.000000 0.000000 0.000000 0.081239 -3.620845 -18.217073 7.657905 -12.996751 0.873646 26.084154 23.123055 21.001305 0.000000 0.000000 0.000000 -7.125000 0.000000 0.000000 -1.602353 6.844256 -1.400561 0.000000 0.000000 0.000000 -0.634134 -0.383652 -23.919634 -8.245858 -13.950689 -1.010615 -23.807656 49.087713 39.573767 0.000000 0.000000 0.000000 7.125000 0.000000 0.000000 18.240081 71.329842 -11.559305
9.561172 16.796144 -35.867550 0.564039 -6.724173 10.119942 0.000000 0.000000 0.000000 -17.936027 -9.193594 -2.918742 0.100280 2.042162 5.622274 0.708439 9.618865 -22.162836 4.608702 -12.921068 -39.086947 0.000000 0.000000 0.000000 14.089361 9.190978 -8.165505 -0.449905 -4.303435 11.931922 -1.291224 3.144779 -20.669584 -3.489817 11.353212 -33.587061 -6.594532 1.016519 -6.688581 1.133612 1.872147 1.549222 5.103047 0.702851 5.135961 -4.168112 1.677083 1.879637 5.804338 1.864663 8.540549 2.634100 0.938381 2.301676 0.000000 0.000000 0.000000 0.122713 -3.832679 -19.620917 7.885540 -13.367150 0.925601 25.416409 22.214102 20.858672 0.000000 0.000000 0.000000 -7.125000 0.000000 0.000000 -2.009532 7.117907 -1.745870 0.000000 0.000000 0.000000 -0.647742 -0.523145 -24.408072 -8.237049 -13.936377 -1.008484 -23.866223 49.423702 39.262295 0.000000 0.000000 0.000000 7.125000 0.000000 0.000000 17.705969 71.063219 -11.111385
